<?xml version="1.0" encoding="UTF-8"?>
<svg width="296px" height="58px" viewBox="0 0 296 58" version="1.1" xmlns="http://www.w3.org/2000/svg" xmlns:xlink="http://www.w3.org/1999/xlink">
    <title>new logo copy 2</title>
    <g id="new-logo-copy-2" stroke="none" stroke-width="1" fill="none" fill-rule="evenodd">
        <rect fill="#005051" x="0" y="0" width="296" height="58"></rect>
        <g id="Group-2" transform="translate(8, 12)" fill-rule="nonzero">
            <path d="M29.6675052,5.59147125 C29.7785101,0.929645151 31.7006466,0.0208415061 31.7006466,0.0208415061 C31.7006466,0.0208415061 27.5292014,-0.113796071 26.6119508,0.301336458 C22.3587126,1.7935696 21.6868412,6.38246702 21.6809988,9.33888381 L21.6809988,9.35571351 L21.6809988,9.33888381 C21.6868412,8.90131169 21.6459447,0.626710603 12.374119,0.0488910013 C12.0936857,0.0320613042 0,0.0208415061 0,0.0208415061 C0,0.0208415061 1.9396636,0.929645151 2.03898372,5.59147125 L2.03898372,19.6667079 C2.34278645,16.5251645 3.80921887,12.7889717 7.34384681,8.49739896 C10.364347,12.1662729 11.8775183,15.4312342 12.4383849,18.2642332 C14.5883735,16.5476041 17.5562925,15.0890303 21.651787,14.2251059 C21.651787,14.2251059 22.1191758,19.5993892 19.8114435,24.5473201 C22.4171362,23.9021817 25.5135871,23.7787639 29.1592199,24.5417102 C29.4338108,23.610467 29.614924,22.6343445 29.6733476,21.6245627 L29.6675052,5.59147125 Z" id="Path" fill="#229E82"></path>
            <path d="M6.96409339,30.9930941 C6.84724619,28.1713149 7.23868433,22.4323882 12.4383849,18.2642332 C11.871676,15.4312342 10.364347,12.1662729 7.34384681,8.49739896 C3.80921887,12.7889717 2.34278645,16.5251645 2.03898372,19.6667079 C2.03898372,19.6667079 1.15094497,26.3985868 6.96409339,30.9930941" id="Path" fill="#F78F35"></path>
            <path d="M21.651787,14.2251059 C17.5562925,15.0946402 14.5883735,16.5476041 12.4383849,18.2642332 C7.23284197,22.4323882 6.84140383,28.1713149 6.96409339,30.9930941 C7.1101524,31.1333416 9.14329376,32.4067887 9.14329376,32.4067887 C10.7441005,29.9103836 14.0859305,25.9666246 19.8114435,24.5473201 C22.1250182,19.5993892 21.651787,14.2251059 21.651787,14.2251059" id="Path" fill="#FCB53E"></path>
            <path d="M19.8114435,24.5473201 C14.0859305,25.9666246 10.7382581,29.9103836 9.14329376,32.4067887 C9.14913612,32.4067887 9.16082084,32.4123986 9.1666632,32.4180085 C12.5493898,34.224396 16.0898601,33.9887802 16.0898601,33.9887802 C22.2944466,33.9831703 27.523359,29.9945321 29.1592199,24.5417102 C25.5135871,23.773154 22.4171362,23.9021817 19.8114435,24.5473201" id="Path" fill="#FFCA43"></path>
            <path d="M89.0142005,10.5618418 L89.0142005,10.2140281 L85.9060648,10.2140281 L85.9060648,10.5618418 C86.4903009,10.7133091 86.6772564,11.0274634 86.6772564,11.3921069 C86.6772564,11.8689483 86.4727738,12.3626194 86.2449217,12.9348291 L84.3870512,17.6247047 L81.4600287,10.8928258 C81.2730732,10.494523 80.8407385,10.2140281 80.3382955,10.2140281 L77.6157557,10.2140281 L77.6157557,10.5562319 C78.4862673,10.6516002 78.8952326,11.2238099 79.3859908,12.3794491 L83.3178992,21.4674855 L83.7502339,21.4674855 L87.530241,12.3794491 C87.9508909,11.3640574 88.3306443,10.7413586 89.0142005,10.5618418 Z" id="Path" fill="#F78F35"></path>
            <path d="M99.3960746,20.4072146 C99.1974344,20.1211098 98.7709421,19.1730368 98.7709421,19.1730368 L94.9558808,10.2140281 L93.3550741,10.2140281 L89.639333,19.3188942 C89.2362102,20.3062364 88.8622991,20.9289352 88.2254818,21.1252817 L88.2254818,21.4674855 L90.9188099,21.4674855 L90.9188099,21.1252817 C90.3871551,21.0130837 90.2703079,20.8055175 90.2703079,20.4913631 C90.2703079,20.0930603 90.4514211,19.717197 90.6150072,19.3188942 L91.3336175,17.6359245 L95.4875356,17.6359245 L96.8371208,20.7830779 C97.0357611,21.1982104 97.4739381,21.4450459 97.9763811,21.4730954 L100.593758,21.4730954 L100.593758,21.1308916 C100.079631,21.0804025 99.7115621,20.8672263 99.3960746,20.4072146 Z M91.7133709,16.6317526 L93.3317047,12.5982352 L95.0610433,16.6317526 L91.7133709,16.6317526 Z" id="Shape" fill="#F78F35"></path>
            <path d="M75.44824,19.5825595 C75.44824,18.1183758 75.4540824,11.4313762 75.44824,11.4089366 C75.4073435,10.7413586 74.8055804,10.2140281 74.0752854,10.2140281 L74.069443,10.2140281 L74.069443,10.2140281 L71.6682329,10.2140281 L71.6682329,10.5562319 C72.5387446,10.7133091 72.6964883,11.2686891 72.6964883,12.3570095 L72.6964883,19.5264605 C72.6672765,20.4689235 72.4569516,20.9738144 71.6507059,21.1196718 L71.6507059,21.4618756 L76.4998649,21.4618756 L76.4998649,21.1196718 C75.6994615,20.9794243 75.4891365,20.4913631 75.44824,19.5825595 Z" id="Path" fill="#F78F35"></path>
            <path d="M46.7914631,10.5562319 C47.6561324,10.7133091 47.8197185,11.2686891 47.8197185,12.3570095 L47.8197185,18.6400964 C46.7914631,19.717197 45.6638876,20.2445276 44.518785,20.2445276 C42.9413477,20.2445276 42.362954,19.3974328 42.362954,17.5686057 L42.362954,15.5322124 L42.362954,15.5322124 C42.362954,13.4621596 42.362954,11.4201564 42.362954,11.4089366 C42.3220575,10.7413586 41.7202944,10.2140281 40.9899994,10.2140281 L40.984157,10.2140281 L40.984157,10.2140281 L38.6764247,10.2140281 L38.6764247,10.5562319 C39.5469364,10.7133091 39.7046801,11.2686891 39.7046801,12.3570095 L39.7046801,16.8505386 L39.7046801,16.8505386 L39.7046801,17.7144631 C39.7046801,20.2389177 40.9549452,21.4674855 43.5372684,21.4674855 C45.1789717,21.4674855 46.5694534,20.940155 47.8255608,19.8237851 L47.8255608,20.3118463 C47.8664574,20.9569847 48.444851,21.4674855 49.1517766,21.4674855 L49.1517766,21.4674855 L49.1517766,21.4674855 L51.477036,21.4674855 L51.477036,21.1252817 C50.682475,20.9794243 50.5013618,20.496973 50.4838348,19.5432902 L50.4838348,12.3570095 C50.4838348,11.2630792 50.6415785,10.7133091 51.5062478,10.5562319 L51.5062478,10.2140281 L46.7914631,10.2140281 L46.7914631,10.5562319 Z" id="Path" fill="#F78F35"></path>
            <path d="M113.213257,19.3245041 L113.213257,14.830975 L113.213257,14.830975 L113.213257,13.9670505 C113.213257,11.442596 111.962991,10.2140281 109.380668,10.2140281 C107.738965,10.2140281 106.348483,10.7413586 105.092376,11.8577285 L105.092376,11.3696673 C105.051479,10.7245289 104.473086,10.2140281 103.76616,10.2140281 L103.76616,10.2140281 L103.76616,10.2140281 L101.440901,10.2140281 L101.440901,10.5562319 C102.235462,10.7020893 102.416575,11.1845406 102.434102,12.1382234 L102.434102,19.3245041 C102.434102,20.4184344 102.276358,20.9682045 101.411689,21.1252817 L101.411689,21.4674855 L106.126474,21.4674855 L106.126474,21.1252817 C105.261804,20.9682045 105.098218,20.4128245 105.098218,19.3245041 L105.098218,13.0414172 C106.126474,11.9643166 107.254049,11.4369861 108.399152,11.4369861 C109.976589,11.4369861 110.554983,12.2840808 110.554983,14.1129079 L110.554983,16.1493013 L110.554983,16.1493013 C110.554983,18.219354 110.554983,20.2613572 110.554983,20.272577 C110.595879,20.940155 111.197642,21.4674855 111.927937,21.4674855 L111.93378,21.4674855 L111.93378,21.4674855 L114.241512,21.4674855 L114.241512,21.1252817 C113.371,20.9682045 113.213257,20.4128245 113.213257,19.3245041 Z" id="Path" fill="#F78F35"></path>
            <path d="M63.6291453,10.2140281 L62.6184169,10.2140281 L62.6184169,10.5618418 L63.64083,10.5618418 C64.4938146,10.7245289 64.6515583,11.274299 64.6515583,12.3626194 L64.6515583,21.9948161 C64.6281889,22.4548278 64.4529181,22.8811801 64.1724848,23.2289938 C64.1724848,23.2346037 64.1666424,23.2346037 64.1666424,23.2402136 C64.1315882,23.2794829 64.0965341,23.3243621 64.0614799,23.3636314 C64.0614799,23.3636314 64.0556376,23.3692413 64.0556376,23.3692413 C63.9037362,23.5263185 63.7343078,23.666566 63.5415099,23.7843738 C63.5298251,23.7899837 63.5239828,23.7955936 63.5122981,23.8012035 C63.5006133,23.8068134 63.4830863,23.8180332 63.4714015,23.8236431 C63.1909683,23.9751104 62.8696384,24.0704787 62.5190968,24.0929183 C62.3730378,24.0985282 62.2561906,24.1041381 62.133501,24.0929183 L62.133501,24.4295122 C62.3964073,24.4519518 62.6768406,24.4631716 63.0040127,24.4519518 C63.6349876,24.4351221 64.1140612,24.3565835 64.5580805,24.2107262 C64.5872923,24.1995064 64.6223465,24.1938965 64.6515583,24.1826767 C66.1822567,23.6609561 67.2689357,22.3258001 67.3156746,20.7494185 L67.3156746,12.3626194 C67.3156746,11.274299 67.4792607,10.7245289 68.3264029,10.5618418 L69.3488159,10.5618418 L69.3488159,10.2140281 L68.34393,10.2140281 L63.6291453,10.2140281 Z" id="Path" fill="#F78F35"></path>
            <path d="M55.029191,10.2140281 L54.0184627,10.2140281 L54.0184627,10.5618418 L55.0408757,10.5618418 C55.8938603,10.7245289 56.0516041,11.274299 56.0516041,12.3626194 L56.0516041,21.9948161 C56.0282346,22.4548278 55.8529638,22.8811801 55.5725305,23.2289938 C55.5725305,23.2346037 55.5666882,23.2346037 55.5666882,23.2402136 C55.531634,23.2794829 55.4965798,23.3243621 55.4615257,23.3636314 C55.4615257,23.3636314 55.4556833,23.3692413 55.4556833,23.3692413 C55.3037819,23.5263185 55.1343535,23.666566 54.9415556,23.7843738 C54.9298709,23.7899837 54.9240285,23.7955936 54.9123438,23.8012035 C54.9006591,23.8068134 54.883132,23.8180332 54.8714473,23.8236431 C54.591014,23.9751104 54.2696842,24.0704787 53.9191426,24.0929183 C53.7730836,24.0985282 53.6562364,24.1041381 53.5335468,24.0929183 L53.5335468,24.4295122 C53.796453,24.4519518 54.0768863,24.4631716 54.4040585,24.4519518 C55.0350334,24.4351221 55.5141069,24.3565835 55.9581263,24.2107262 C55.9873381,24.1995064 56.0223922,24.1938965 56.0516041,24.1826767 C57.5823024,23.6609561 58.6689814,22.3258001 58.7157203,20.7494185 L58.7157203,12.3626194 C58.7157203,11.274299 58.8793064,10.7245289 59.7264486,10.5618418 L60.7488617,10.5618418 L60.7488617,10.2140281 L59.7439757,10.2140281 L55.029191,10.2140281 Z" id="Path" fill="#F78F35"></path>
            <path d="M121.532778,20.3511156 C123.244589,20.3511156 124.097574,19.7901257 124.097574,18.662536 C124.097574,18.3147223 124.021623,18.0230075 123.869722,17.776172 C123.71782,17.5349463 123.513338,17.3217701 123.250431,17.1422534 C122.993368,16.9627366 122.695407,16.8112693 122.362393,16.6822417 C122.029378,16.553214 121.678837,16.4241863 121.304925,16.2951586 C120.878433,16.1549111 120.469468,15.997834 120.089715,15.8183172 C119.704119,15.6388004 119.376947,15.4312342 119.090671,15.1843986 C118.810238,14.943173 118.588228,14.6514582 118.424642,14.3148643 C118.261056,13.9782703 118.179263,13.5743576 118.179263,13.0975162 C118.179263,12.1157838 118.529804,11.3472277 119.225045,10.7918477 C119.920286,10.2420776 120.884276,9.96158261 122.111171,9.96158261 C122.818097,9.96158261 123.466599,10.0345113 124.044992,10.1803687 C124.623386,10.326226 125.049878,10.4833032 125.318627,10.6572101 L124.798657,11.9362671 C124.564962,11.7960196 124.208578,11.6557721 123.74119,11.5211345 C123.273801,11.386497 122.730461,11.3191782 122.111171,11.3191782 C121.795684,11.3191782 121.503566,11.3528376 121.234817,11.4145465 C120.966069,11.4818652 120.726532,11.5772335 120.527892,11.7062612 C120.323409,11.8352889 120.165665,12.0035859 120.048818,12.1999323 C119.931971,12.4018887 119.873547,12.6375045 119.873547,12.9067796 C119.873547,13.2097142 119.937813,13.4621596 120.060503,13.6697259 C120.183192,13.8772921 120.358463,14.0568089 120.586315,14.2138861 C120.814167,14.3709633 121.071231,14.5112107 121.369191,14.6458483 C121.667152,14.774876 121.994324,14.9039037 122.35655,15.0329313 C122.864836,15.2292778 123.326382,15.4200144 123.752874,15.6163608 C124.173524,15.8127073 124.541593,16.0427132 124.851238,16.3119883 C125.160883,16.5812635 125.40042,16.9010277 125.569848,17.276891 C125.739277,17.6471443 125.82107,18.1015461 125.82107,18.6288766 C125.82107,19.610609 125.447159,20.3679453 124.699337,20.9008857 C123.951515,21.4338261 122.894047,21.6974914 121.532778,21.6974914 C121.071231,21.6974914 120.644739,21.6694419 120.259143,21.607733 C119.873547,21.5460241 119.523006,21.4787053 119.219203,21.4001668 C118.9154,21.3216282 118.652494,21.2318698 118.436327,21.1421114 C118.214317,21.052353 118.044888,20.9738144 117.922199,20.9064956 L118.412957,19.610609 C118.670021,19.7508564 119.067301,19.9079336 119.593114,20.0818405 C120.118926,20.2613572 120.767428,20.3511156 121.532778,20.3511156 Z" id="Path" fill="#FFFFFF"></path>
            <path d="M132.376198,19.9079336 C132.265193,19.6498783 132.113292,19.3188942 131.926336,18.9205914 C131.739381,18.5222885 131.540741,18.0903263 131.324573,17.6247047 C131.108406,17.1590831 130.880554,16.6822417 130.641017,16.1885705 C130.395638,15.6948994 130.167786,15.2348877 129.957461,14.7917057 C129.741294,14.3541336 129.542653,13.9614406 129.355698,13.6136269 C129.168742,13.2658131 129.022683,13.0021479 128.905836,12.8170212 C128.783147,14.0904683 128.683826,15.4761134 128.602033,16.9627366 C128.526083,18.4493599 128.455974,19.9472029 128.403393,21.4618756 L126.796744,21.4618756 C126.843483,20.4913631 126.890222,19.5096308 126.948645,18.5166786 C127.007069,17.5293364 127.071335,16.553214 127.141443,15.5995311 C127.211552,14.6402384 127.293345,13.7089952 127.375138,12.8001915 C127.456931,11.8913879 127.550409,11.0330733 127.649729,10.219638 L129.086949,10.219638 C129.390752,10.6964794 129.717924,11.2574693 130.068466,11.9082176 C130.419007,12.5589659 130.769549,13.2377636 131.114248,13.9446109 C131.46479,14.6514582 131.803647,15.3583055 132.130819,16.0707627 C132.457991,16.7776099 132.755952,17.4227483 133.0247,18.0061778 C133.293449,17.4227483 133.591409,16.7776099 133.918581,16.0707627 C134.245753,15.3639154 134.58461,14.6570681 134.92931,13.9446109 C135.279851,13.2377636 135.62455,12.5589659 135.975092,11.9082176 C136.325634,11.2574693 136.652806,10.6964794 136.956609,10.219638 L138.393829,10.219638 C138.779425,13.8436327 139.065701,17.5854354 139.258498,21.4562657 L137.651849,21.4562657 C137.593426,19.941593 137.523317,18.44375 137.447367,16.9571267 C137.365574,15.4705035 137.266254,14.0904683 137.143564,12.8170212 C137.032559,13.0021479 136.880658,13.2658131 136.693702,13.6136269 C136.506747,13.9614406 136.308107,14.3541336 136.097782,14.7917057 C135.881614,15.2292778 135.653762,15.6948994 135.414225,16.1885705 C135.174689,16.6822417 134.946837,17.1590831 134.730669,17.6247047 C134.514502,18.0903263 134.315862,18.5222885 134.134749,18.9205914 C133.947793,19.3188942 133.801734,19.6498783 133.684887,19.9079336 L132.376198,19.9079336 Z" id="Path" fill="#FFFFFF"></path>
            <path d="M148.974344,21.4562657 C148.781546,20.9682045 148.600432,20.4913631 148.431004,20.0201316 C148.261576,19.5489001 148.086305,19.0720587 147.905192,18.5839974 L142.600329,18.5839974 L141.537019,21.4562657 L139.83105,21.4562657 C140.280911,20.2669671 140.701561,19.1674269 141.093,18.1576451 C141.484438,17.1478633 141.870033,16.1885705 142.249787,15.2797669 C142.623698,14.3709633 142.997609,13.5014289 143.37152,12.6767737 C143.745431,11.8521186 144.131027,11.0330733 144.53415,10.219638 L146.035636,10.219638 C146.438759,11.0274634 146.830197,11.8465087 147.204108,12.6767737 C147.578019,13.5014289 147.95193,14.3709633 148.325842,15.2797669 C148.705595,16.1885705 149.091191,17.1478633 149.482629,18.1576451 C149.879909,19.1674269 150.300559,20.2669671 150.750421,21.4562657 L148.974344,21.4562657 Z M147.437803,17.2881108 C147.075576,16.3456477 146.719192,15.4368441 146.362808,14.5560899 C146.006425,13.6753358 145.638356,12.828241 145.25276,12.0204156 C144.861322,12.8338509 144.487411,13.6753358 144.131027,14.5560899 C143.774643,15.4368441 143.424101,16.3456477 143.079402,17.2881108 L147.437803,17.2881108 Z" id="Shape" fill="#FFFFFF"></path>
            <polygon id="Path" fill="#FFFFFF" points="158.7194 20.0874504 158.7194 21.4506558 151.679356 21.4562657 151.673514 10.219638 153.309375 10.219638 153.315217 20.0930603"></polygon>
            <polygon id="Path" fill="#FFFFFF" points="166.805227 20.0818405 166.805227 21.4450459 159.765183 21.4506558 159.75934 10.2140281 161.395201 10.2140281 161.401044 20.0874504"></polygon>
            <polygon id="Path" fill="#FFFFFF" points="171.081835 21.4450459 171.075992 10.2084182 178.133563 10.2028083 178.133563 11.549184 172.711853 11.549184 172.711853 14.9375631 177.525958 14.9375631 177.525958 16.2671091 172.711853 16.2671091 172.711853 21.439436"></polygon>
            <polygon id="Path" fill="#FFFFFF" points="179.465622 10.2028083 181.101482 10.2028083 181.107325 21.439436 179.471464 21.439436"></polygon>
            <path d="M191.360667,21.4338261 C191.115288,21.0355233 190.829012,20.5867314 190.507682,20.0874504 C190.186353,19.5881694 189.841653,19.0720587 189.467742,18.5391182 C189.093831,18.0061778 188.708235,17.4620176 188.310955,16.9122475 C187.913674,16.3624774 187.516394,15.829537 187.119113,15.3134263 C186.721833,14.8029255 186.34208,14.3148643 185.968168,13.8604624 C185.594257,13.4060606 185.255401,13.0077578 184.939913,12.659944 L184.945755,21.4338261 L183.339106,21.4338261 L183.333264,10.1971984 L184.63611,10.1971984 C185.167765,10.7357487 185.728632,11.3696673 186.336237,12.0877343 C186.938,12.8058014 187.533921,13.5463081 188.129842,14.3092544 C188.71992,15.0722006 189.280787,15.8183172 189.800757,16.553214 C190.326569,17.2881108 190.764746,17.9444689 191.126973,18.5166786 L191.12113,10.1971984 L192.727779,10.1971984 L192.733622,21.4338261 L191.360667,21.4338261 Z" id="Path" fill="#FFFFFF"></path>
            <path d="M202.776639,21.4282162 C202.583841,20.940155 202.402728,20.4633136 202.233299,19.9920821 C202.063871,19.5208506 201.8886,19.0440092 201.707487,18.5559479 L196.402624,18.5559479 L195.339314,21.4282162 L193.633345,21.4282162 C194.083207,20.2389177 194.503857,19.1393774 194.895295,18.1295956 C195.286733,17.1198138 195.672329,16.160521 196.052082,15.2517174 C196.425993,14.3429138 196.799904,13.4733794 197.173815,12.6487242 C197.547726,11.8240691 197.933322,11.0050238 198.336445,10.1915885 L199.837932,10.1915885 C200.241055,10.9994139 200.632493,11.8184592 201.006404,12.6487242 C201.380315,13.4733794 201.754226,14.3429138 202.128137,15.2517174 C202.50789,16.160521 202.893486,17.1198138 203.284924,18.1295956 C203.682205,19.1393774 204.102855,20.2389177 204.552716,21.4282162 L202.776639,21.4282162 Z M201.240098,17.2600613 C200.877872,16.3175982 200.521488,15.4087946 200.165104,14.5280404 C199.80872,13.6472863 199.440651,12.8001915 199.055055,11.9923661 C198.663617,12.8058014 198.289706,13.6472863 197.933322,14.5280404 C197.576938,15.4087946 197.226397,16.3175982 196.881697,17.2600613 L201.240098,17.2600613 Z" id="Shape" fill="#FFFFFF"></path>
            <path d="M213.49737,21.4226063 C213.251991,21.0243035 212.965715,20.5755116 212.644385,20.0762306 C212.323055,19.5769496 211.978356,19.0608389 211.604445,18.5278984 C211.230534,17.994958 210.844938,17.4507978 210.447658,16.9010277 C210.050377,16.3512576 209.653097,15.8183172 209.255816,15.3022065 C208.858536,14.7917057 208.478782,14.3036445 208.104871,13.8492426 C207.73096,13.3948408 207.392103,12.996538 207.076616,12.6487242 L207.082458,21.4226063 L205.475809,21.4226063 L205.469967,10.1859786 L206.772813,10.1859786 C207.304468,10.7245289 207.865335,11.3584475 208.47294,12.0765145 C209.074703,12.7945816 209.670624,13.5350883 210.266545,14.2980346 C210.856623,15.0609808 211.41749,15.8070974 211.93746,16.5419942 C212.463272,17.276891 212.901449,17.9332491 213.263675,18.5054588 L213.257833,10.1859786 L214.864482,10.1859786 L214.870325,21.4226063 L213.49737,21.4226063 Z" id="Path" fill="#FFFFFF"></path>
            <path d="M222.126536,21.663832 C221.302763,21.663832 220.554941,21.5348043 219.88307,21.276749 C219.205356,21.0186936 218.626962,20.6372205 218.142046,20.1435494 C217.65713,19.6442684 217.283219,19.0327894 217.020313,18.3035025 C216.757407,17.5742156 216.623033,16.7383406 216.623033,15.7958776 C216.623033,14.8534146 216.769092,14.0175396 217.067052,13.2882527 C217.365012,12.5589659 217.768135,11.9474869 218.276421,11.4482059 C218.784706,10.9489248 219.374784,10.5730616 220.046656,10.3150062 C220.72437,10.0569509 221.44298,9.92792321 222.208329,9.92231331 C222.693245,9.92231331 223.131422,9.95597271 223.517018,10.0176816 C223.902613,10.0850004 224.24147,10.1579291 224.527746,10.2420776 C224.814022,10.326226 225.047716,10.4159844 225.228829,10.5001329 C225.409942,10.5842814 225.532632,10.6516002 225.60274,10.6964794 L225.129509,11.9923661 C225.030189,11.9250473 224.88413,11.8577285 224.691332,11.7791899 C224.498534,11.7062612 224.282367,11.6277226 224.04283,11.5547939 C223.803293,11.4818652 223.534545,11.4145465 223.248269,11.3696673 C222.961993,11.3191782 222.669875,11.2967386 222.377757,11.2967386 C221.758467,11.2967386 221.203443,11.3977168 220.706842,11.605283 C220.210242,11.8128493 219.789592,12.1101739 219.43905,12.497257 C219.088509,12.88434 218.825602,13.3611814 218.638647,13.9165614 C218.451691,14.4719414 218.358214,15.1002501 218.358214,15.7902677 C218.358214,16.4634556 218.440007,17.0693247 218.603593,17.6247047 C218.767179,18.1744748 219.012558,18.6513162 219.33973,19.0440092 C219.666902,19.4367021 220.075868,19.7452465 220.566626,19.9584227 C221.057384,20.1772088 221.629935,20.2837968 222.278437,20.2837968 C223.032102,20.2837968 223.657234,20.2052583 224.153835,20.053791 C224.650436,19.9023237 225.018504,19.7676861 225.269726,19.6498783 L225.690376,20.9457649 C225.614425,21.0018639 225.468366,21.0691827 225.269726,21.1477213 C225.065243,21.2262599 224.814022,21.3047985 224.510219,21.3833371 C224.206416,21.4562657 223.850032,21.5235845 223.446909,21.5796835 C223.037944,21.6357825 222.599767,21.663832 222.126536,21.663832 Z" id="Path" fill="#FFFFFF"></path>
            <polygon id="Path" fill="#FFFFFF" points="226.88806 21.4169965 226.882217 10.1803687 234.027424 10.1747588 234.027424 11.5211345 228.52392 11.5211345 228.52392 14.8590245 233.419818 14.8590245 233.419818 16.1717408 228.52392 16.1717408 228.52392 20.0650108 234.453916 20.0594009 234.453916 21.4057767"></polygon>
            <path d="M242.241782,21.5067548 C242.008088,21.5067548 241.751024,21.5011449 241.470591,21.4899251 C241.196,21.4787053 240.921409,21.4618756 240.640976,21.439436 C240.366385,21.4169965 240.091794,21.388947 239.823045,21.3608975 C239.554297,21.3272381 239.303075,21.2879688 239.081065,21.2318698 L239.075223,10.3374458 C239.303075,10.2813469 239.548454,10.2420776 239.817203,10.2084182 C240.085951,10.1747588 240.360542,10.1467093 240.635133,10.1242697 C240.909724,10.1018301 241.184315,10.0850004 241.453064,10.0737806 C241.721812,10.0625608 241.978876,10.0569509 242.21257,10.0569509 C242.890284,10.0569509 243.521259,10.10744 244.111338,10.2028083 C244.701416,10.2981766 245.215544,10.4664735 245.647878,10.6964794 C246.080213,10.9264852 246.424912,11.2350297 246.670291,11.6108929 C246.91567,11.9867562 247.044202,12.4523778 247.044202,13.0077578 C247.044202,13.6248467 246.892301,14.1297376 246.588498,14.5224305 C246.284696,14.9151235 245.881573,15.2124481 245.373287,15.4087946 C246.062686,15.605141 246.606025,15.9080756 247.009148,16.3344279 C247.412271,16.7551703 247.616754,17.3498196 247.616754,18.1183758 C247.616754,19.2403556 247.184419,20.0874504 246.325592,20.6540502 C245.472607,21.22065 244.111338,21.5067548 242.241782,21.5067548 Z M240.699399,14.9095136 L242.422895,14.9095136 C242.826018,14.9095136 243.211614,14.8814641 243.57384,14.8253651 C243.936067,14.7692661 244.245712,14.6738978 244.508618,14.5336503 C244.771524,14.3934029 244.981849,14.2082762 245.133751,13.9838802 C245.285652,13.7594843 245.361603,13.4677695 245.361603,13.1255657 C245.361603,12.8001915 245.27981,12.5309164 245.122066,12.3065204 C244.964322,12.0877343 244.748155,11.9082176 244.473564,11.77358 C244.198973,11.6389424 243.871801,11.5379642 243.503732,11.4762553 C243.129821,11.4089366 242.738383,11.3808871 242.323575,11.3808871 C241.908768,11.3808871 241.581596,11.386497 241.342059,11.3977168 C241.108364,11.4089366 240.892197,11.4257663 240.699399,11.4482059 L240.699399,14.9095136 Z M240.699399,16.1717408 L240.699399,20.1267197 C240.822089,20.1379395 240.968148,20.1491593 241.137576,20.1603791 C241.283635,20.1715989 241.453064,20.1772088 241.651704,20.1828187 C241.850344,20.1884286 242.078196,20.1884286 242.33526,20.1884286 C242.820176,20.1884286 243.27588,20.1603791 243.714057,20.0986702 C244.146392,20.0369613 244.526145,19.9359831 244.853317,19.7845158 C245.180489,19.6330486 245.443396,19.4198724 245.636194,19.1505972 C245.834834,18.8813221 245.934154,18.5391182 245.928312,18.1295956 C245.928312,17.7649522 245.852361,17.4507978 245.706302,17.1983524 C245.560243,16.9459069 245.349918,16.7439505 245.075327,16.5924833 C244.800736,16.441016 244.467721,16.3344279 244.087968,16.2671091 C243.702372,16.1997903 243.27588,16.1717408 242.802649,16.1717408 L240.699399,16.1717408 Z" id="Shape" fill="#FFFFFF"></path>
            <path d="M257.08722,21.4001668 C256.894422,20.9121055 256.713309,20.4352641 256.54388,19.9640326 C256.374452,19.4928011 256.199181,19.0159597 256.018068,18.5278984 L250.713205,18.5278984 L249.649895,21.4001668 L247.943926,21.4001668 C248.393788,20.2108682 248.814437,19.1113279 249.205876,18.1015461 C249.597314,17.0917643 249.98291,16.1324716 250.362663,15.2236679 C250.736574,14.3148643 251.110485,13.4453299 251.484396,12.6206748 C251.858307,11.7960196 252.243903,10.9769743 252.647026,10.163539 L254.148512,10.163539 C254.551635,10.9713644 254.943073,11.7904097 255.316984,12.6206748 C255.690895,13.4453299 256.064807,14.3148643 256.438718,15.2236679 C256.818471,16.1324716 257.204067,17.0917643 257.595505,18.1015461 C257.992785,19.1113279 258.413435,20.2108682 258.863297,21.4001668 L257.08722,21.4001668 Z M255.544836,17.2376217 C255.18261,16.2951586 254.826226,15.386355 254.469842,14.5056008 C254.113458,13.6248467 253.74539,12.7777519 253.359794,11.9699265 C252.968356,12.7833618 252.594445,13.6248467 252.238061,14.5056008 C251.881677,15.386355 251.531135,16.2951586 251.186436,17.2376217 L255.544836,17.2376217 Z" id="Shape" fill="#FFFFFF"></path>
            <path d="M267.807951,21.3945569 C267.562571,20.996254 267.276296,20.5474621 266.954966,20.0481811 C266.633636,19.5489001 266.288937,19.0327894 265.915026,18.4998489 C265.541115,17.9669085 265.155519,17.4227483 264.758239,16.8729782 C264.360958,16.3232081 263.963678,15.7902677 263.566397,15.274157 C263.169117,14.7636562 262.789363,14.275595 262.415452,13.8211931 C262.041541,13.3667913 261.702684,12.9684885 261.387197,12.6206748 L261.393039,21.3945569 L259.78639,21.3945569 L259.780548,10.1579291 L261.083394,10.1579291 C261.615049,10.6964794 262.175915,11.330398 262.783521,12.0484651 C263.385284,12.7665321 263.981205,13.5070388 264.577125,14.2699851 C265.167204,15.0329313 265.72807,15.7790479 266.24804,16.5139447 C266.773853,17.2488415 267.21203,17.9051997 267.574256,18.4774094 L267.568414,10.1579291 L269.175063,10.1579291 L269.180905,21.3945569 L267.807951,21.3945569 Z" id="Path" fill="#FFFFFF"></path>
            <path d="M280.05938,10.1523192 C279.708838,10.5225725 279.3174,10.9264852 278.879223,11.3752772 C278.441046,11.8240691 277.9795,12.2840808 277.506269,12.7553123 C277.027195,13.2265438 276.553964,13.6865556 276.080733,14.1409574 C275.607502,14.5953592 275.163482,15.0161016 274.748675,15.4087946 C275.23359,15.7341687 275.747718,16.1324716 276.285215,16.609313 C276.828555,17.0861544 277.354367,17.5910453 277.874337,18.1352055 C278.394307,18.6737558 278.879223,19.2291358 279.334927,19.7901257 C279.790631,20.3511156 280.170385,20.8896659 280.474188,21.3945569 L278.546209,21.3945569 C278.207352,20.884056 277.821756,20.3735552 277.377737,19.8630544 C276.93956,19.3525536 276.472171,18.8588825 275.981413,18.387651 C275.490654,17.9164194 274.994054,17.4844572 274.497453,17.0805445 C273.99501,16.6822417 273.510094,16.3400378 273.036863,16.0595429 L273.036863,21.3945569 L271.401002,21.3945569 L271.39516,10.1579291 L273.031021,10.1579291 L273.031021,15.1170798 C273.422459,14.7580463 273.860636,14.3597435 274.328025,13.9109515 C274.801256,13.4621596 275.268645,13.0133677 275.730191,12.5589659 C276.191738,12.104564 276.629915,11.6669919 277.03888,11.2518594 C277.447845,10.8367269 277.798387,10.4720834 278.07882,10.1579291 L280.05938,10.1523192 Z" id="Path" fill="#FFFFFF"></path>
            <path d="M196.314988,33.9326812 C196.163087,33.9326812 195.999501,33.9270713 195.82423,33.9214614 C195.648959,33.9158515 195.473689,33.9046317 195.298418,33.887802 C195.123147,33.8765822 194.947876,33.8541426 194.778448,33.8373129 C194.609019,33.8148733 194.451276,33.7924337 194.305217,33.7531644 L194.305217,26.8193292 C194.451276,26.7856698 194.609019,26.7576203 194.778448,26.7351807 C194.947876,26.7127411 195.123147,26.6959114 195.298418,26.6846916 C195.473689,26.6734719 195.648959,26.6622521 195.818388,26.6566422 C195.993659,26.6510323 196.151402,26.6454224 196.303304,26.6454224 C196.735638,26.6454224 197.138761,26.6790818 197.512672,26.7407906 C197.886583,26.8024995 198.213756,26.9090876 198.494189,27.054945 C198.76878,27.2008024 198.984947,27.3971488 199.142691,27.6383745 C199.300435,27.8796001 199.376385,28.1769248 199.376385,28.5247385 C199.376385,28.9174315 199.277065,29.2371957 199.084267,29.4896412 C198.891469,29.7420866 198.634405,29.9272133 198.307233,30.0506311 C198.74541,30.1740489 199.09011,30.3703953 199.353016,30.6396705 C199.61008,30.9089456 199.738612,31.2848089 199.738612,31.7728701 C199.738612,32.4909372 199.464021,33.0238776 198.914839,33.388521 C198.371499,33.7531644 197.500988,33.9326812 196.314988,33.9326812 Z M195.333472,29.7308668 L196.431836,29.7308668 C196.6889,29.7308668 196.934279,29.7140371 197.162131,29.6803777 C197.389983,29.6467183 197.588623,29.5850095 197.758051,29.4952511 C197.92748,29.4054927 198.061854,29.2876848 198.155332,29.1418274 C198.254652,28.9959701 198.301391,28.8164533 198.301391,28.5976672 C198.301391,28.390101 198.24881,28.2161941 198.14949,28.0759466 C198.050169,27.9356991 197.909953,27.8235012 197.734682,27.7337428 C197.559411,27.6495943 197.354929,27.5822755 197.115392,27.5430062 C196.881697,27.5037369 196.630476,27.4812973 196.361727,27.4812973 C196.092979,27.4812973 195.888496,27.4869072 195.736595,27.4925171 C195.584693,27.498127 195.450319,27.5093468 195.32763,27.5261765 L195.32763,29.7308668 L195.333472,29.7308668 Z M195.333472,30.5386923 L195.333472,33.057537 C195.415265,33.0631469 195.508743,33.0743667 195.613905,33.0799766 C195.707383,33.0855865 195.818388,33.0911964 195.941077,33.0968063 C196.063767,33.1024162 196.209826,33.1024162 196.379254,33.1024162 C196.6889,33.1024162 196.981018,33.0799766 197.255608,33.0463172 C197.530199,33.0070479 197.775579,32.9397291 197.980061,32.8443608 C198.190386,32.7489925 198.353972,32.6143549 198.482504,32.4404481 C198.605194,32.2665412 198.66946,32.053365 198.66946,31.7896998 C198.66946,31.554084 198.622721,31.3577376 198.529243,31.1950505 C198.435765,31.0323634 198.301391,30.9033357 198.12612,30.8079674 C197.950849,30.7125992 197.740524,30.6452804 197.495145,30.6004012 C197.249766,30.5611319 196.981018,30.5386923 196.677215,30.5386923 L195.333472,30.5386923 L195.333472,30.5386923 Z" id="Shape" fill="#CCCCCC"></path>
            <path d="M205.604341,33.7138951 C205.376489,33.7699941 205.072686,33.8260931 204.692933,33.887802 C204.319022,33.9495109 203.880845,33.9831703 203.390087,33.9831703 C202.957752,33.9831703 202.595526,33.9214614 202.303408,33.8036535 C202.01129,33.6858457 201.771753,33.5119388 201.596482,33.2931527 C201.415369,33.0743667 201.286837,32.8107014 201.210886,32.5133768 C201.134936,32.2160521 201.094039,31.8794582 201.094039,31.5148147 L201.094039,28.5022989 L202.093083,28.5022989 L202.093083,31.3072485 C202.093083,31.9636066 202.198245,32.4292283 202.414413,32.7097232 C202.63058,32.9902182 202.992806,33.1304656 203.501092,33.1304656 C203.606254,33.1304656 203.723101,33.1248557 203.834106,33.1192459 C203.950953,33.113636 204.056116,33.1024162 204.155436,33.0911964 C204.254756,33.0799766 204.348234,33.0687568 204.430027,33.0631469 C204.51182,33.0519271 204.570243,33.0407073 204.605298,33.0238776 L204.605298,28.4910791 L205.604341,28.4910791 L205.604341,33.7138951 L205.604341,33.7138951 Z" id="Path" fill="#CCCCCC"></path>
            <path d="M207.818596,27.5317864 C207.637483,27.5317864 207.485581,27.4756874 207.362892,27.3634894 C207.240202,27.2512915 207.175936,27.0998242 207.175936,26.9034777 C207.175936,26.7127411 207.240202,26.555664 207.362892,26.443466 C207.491424,26.331268 207.643325,26.275169 207.818596,26.275169 C207.999709,26.275169 208.15161,26.331268 208.2743,26.443466 C208.402832,26.555664 208.461255,26.7071312 208.461255,26.9034777 C208.461255,27.0998242 208.396989,27.2512915 208.2743,27.3634894 C208.145768,27.4756874 207.993867,27.5317864 207.818596,27.5317864 Z M208.321039,33.8709723 L207.321995,33.8709723 L207.321995,28.5022989 L208.321039,28.5022989 L208.321039,33.8709723 Z" id="Shape" fill="#CCCCCC"></path>
            <path d="M211.71545,33.9775604 C211.102002,33.9607307 210.663825,33.8373129 210.406761,33.5960873 C210.149697,33.3548616 210.021166,32.9789984 210.021166,32.4684976 L210.021166,26.0283335 L211.020209,25.8656464 L211.020209,32.3170303 C211.020209,32.4741075 211.031894,32.6031351 211.061106,32.7097232 C211.090317,32.8107014 211.137056,32.8948499 211.201322,32.9565588 C211.265588,33.0182677 211.353224,33.0631469 211.458386,33.0968063 C211.563549,33.1248557 211.697923,33.1529052 211.855667,33.1753448 L211.71545,33.9775604 Z" id="Path" fill="#CCCCCC"></path>
            <path d="M216.587978,26.0283335 L217.587022,25.8656464 L217.587022,33.719505 C217.35917,33.7812139 217.06121,33.8429228 216.704826,33.9046317 C216.348442,33.9663406 215.933634,34 215.466245,34 C215.033911,34 214.648315,33.9326812 214.303616,33.8036535 C213.958916,33.6746259 213.666798,33.4894992 213.421419,33.2482735 C213.17604,33.0070479 212.989085,32.7153331 212.85471,32.3675194 C212.720336,32.0197056 212.65607,31.6270127 212.65607,31.1950505 C212.65607,30.779918 212.708651,30.4040547 212.819656,30.0618509 C212.930661,29.719647 213.094247,29.4223224 213.310414,29.1754868 C213.526582,28.9286513 213.789488,28.7323048 214.099133,28.5976672 C214.408778,28.4574197 214.765162,28.390101 215.168285,28.390101 C215.489615,28.390101 215.77589,28.4293703 216.02127,28.5135187 C216.266649,28.5976672 216.453604,28.6762058 216.576294,28.7491345 L216.576294,26.0283335 L216.587978,26.0283335 Z M216.587978,29.6411084 C216.465289,29.5457402 216.290018,29.4503719 216.062166,29.3606135 C215.834314,29.2708551 215.583093,29.2259759 215.308502,29.2259759 C215.022226,29.2259759 214.776847,29.276465 214.572364,29.3774432 C214.367882,29.4784214 214.204295,29.6130589 214.069921,29.7925757 C213.941389,29.9664826 213.847912,30.1740489 213.789488,30.4152745 C213.731064,30.6565002 213.701853,30.9145555 213.701853,31.1894406 C213.701853,31.8177493 213.865439,32.3002006 214.186768,32.6367945 C214.508098,32.9789984 214.940433,33.1472953 215.47793,33.1472953 C215.752521,33.1472953 215.980373,33.1360755 216.161486,33.113636 C216.342599,33.0911964 216.482816,33.0631469 216.587978,33.0350974 L216.587978,29.6411084 Z" id="Shape" fill="#CCCCCC"></path>
            <path d="M223.598811,28.3676614 C223.996091,28.3676614 224.334948,28.4181505 224.615381,28.5191286 C224.889972,28.6201068 225.111982,28.7603543 225.28141,28.9398711 C225.450839,29.1193878 225.567686,29.3381739 225.637794,29.5906194 C225.707903,29.8430648 225.742957,30.1179499 225.742957,30.4208844 L225.742957,33.775604 C225.655322,33.7924337 225.538474,33.8092634 225.380731,33.831703 C225.228829,33.8541426 225.053558,33.8765822 224.860761,33.8990218 C224.667963,33.9214614 224.457638,33.9382911 224.229786,33.9551208 C224.001934,33.9719505 223.779924,33.9831703 223.557914,33.9831703 C223.242427,33.9831703 222.950309,33.9495109 222.687403,33.887802 C222.424496,33.8260931 222.196644,33.7251149 221.998004,33.5960873 C221.805206,33.4614497 221.653305,33.2819329 221.548142,33.0631469 C221.44298,32.8443608 221.384556,32.5806955 221.384556,32.2665412 C221.384556,31.9692165 221.448822,31.7167711 221.571512,31.5035949 C221.700044,31.2904188 221.869472,31.1165119 222.085639,30.9874842 C222.301807,30.8584565 222.553028,30.7630883 222.839304,30.6957695 C223.12558,30.6340606 223.429382,30.6004012 223.739027,30.6004012 C223.838348,30.6004012 223.94351,30.6060111 224.054515,30.6172309 C224.159677,30.6284507 224.26484,30.6396705 224.36416,30.6565002 C224.46348,30.6733299 224.545273,30.6901596 224.615381,30.7013794 C224.68549,30.7125992 224.738071,30.723819 224.767283,30.7294289 L224.767283,30.4601537 C224.767283,30.3030765 224.749756,30.1459994 224.714702,29.9889222 C224.679647,29.831845 224.615381,29.6972074 224.521904,29.5737897 C224.428426,29.4559818 224.299894,29.3550036 224.14215,29.2876848 C223.984407,29.2147561 223.774082,29.1810967 223.511175,29.1810967 C223.184003,29.1810967 222.891885,29.2035363 222.646506,29.2484155 C222.401127,29.2932947 222.214171,29.3381739 222.091482,29.388663 L221.974635,28.5920573 C222.103167,28.5359583 222.319334,28.4854692 222.623137,28.4293703 C222.926939,28.3732713 223.248269,28.3676614 223.598811,28.3676614 Z M223.686446,33.1809547 C223.920141,33.1809547 224.130466,33.1753448 224.317421,33.164125 C224.498534,33.1529052 224.650436,33.1360755 224.773125,33.1080261 L224.773125,31.5092048 C224.703017,31.4755454 224.58617,31.4474959 224.422584,31.4194464 C224.26484,31.3970068 224.0662,31.385787 223.838348,31.385787 C223.686446,31.385787 223.528702,31.3970068 223.359274,31.4138365 C223.189846,31.4362761 223.037944,31.4755454 222.897728,31.5428642 C222.757511,31.610183 222.640664,31.6999414 222.547186,31.8121394 C222.453708,31.9243374 222.406969,32.0758046 222.406969,32.2609313 C222.406969,32.6031351 222.523816,32.8443608 222.751669,32.9789984 C222.979521,33.113636 223.289166,33.1809547 223.686446,33.1809547 Z" id="Shape" fill="#CCCCCC"></path>
            <path d="M231.959228,33.9326812 C231.807327,33.9326812 231.643741,33.9270713 231.46847,33.9214614 C231.293199,33.9158515 231.117928,33.9046317 230.942658,33.887802 C230.767387,33.8765822 230.592116,33.8541426 230.422687,33.8373129 C230.253259,33.8148733 230.095515,33.7924337 229.949456,33.7531644 L229.949456,26.8193292 C230.095515,26.7856698 230.253259,26.7576203 230.422687,26.7351807 C230.592116,26.7127411 230.767387,26.6959114 230.942658,26.6846916 C231.117928,26.6734719 231.293199,26.6622521 231.462628,26.6566422 C231.637898,26.6510323 231.795642,26.6454224 231.947544,26.6454224 C232.379878,26.6454224 232.783001,26.6790818 233.156912,26.7407906 C233.530823,26.8024995 233.857995,26.9090876 234.138429,27.054945 C234.41302,27.2008024 234.629187,27.3971488 234.786931,27.6383745 C234.944674,27.8796001 235.020625,28.1769248 235.020625,28.5247385 C235.020625,28.9174315 234.921305,29.2371957 234.728507,29.4896412 C234.535709,29.7420866 234.278645,29.9272133 233.951473,30.0506311 C234.38965,30.1740489 234.734349,30.3703953 234.997256,30.6396705 C235.254319,30.9089456 235.382851,31.2848089 235.382851,31.7728701 C235.382851,32.4909372 235.10826,33.0238776 234.559079,33.388521 C234.015739,33.7531644 233.15107,33.9326812 231.959228,33.9326812 Z M230.983554,29.7308668 L232.081918,29.7308668 C232.338982,29.7308668 232.584361,29.7140371 232.812213,29.6803777 C233.040065,29.6467183 233.238705,29.5850095 233.408134,29.4952511 C233.577562,29.4054927 233.711936,29.2876848 233.805414,29.1418274 C233.904734,28.9959701 233.951473,28.8164533 233.951473,28.5976672 C233.951473,28.390101 233.898892,28.2161941 233.799572,28.0759466 C233.700252,27.9356991 233.560035,27.8235012 233.384764,27.7337428 C233.209493,27.6495943 233.005011,27.5822755 232.765474,27.5430062 C232.53178,27.5037369 232.280558,27.4812973 232.011809,27.4812973 C231.743061,27.4812973 231.538578,27.4869072 231.386677,27.4925171 C231.234776,27.498127 231.100401,27.5093468 230.977712,27.5261765 L230.977712,29.7308668 L230.983554,29.7308668 Z M230.983554,30.5386923 L230.983554,33.057537 C231.065347,33.0631469 231.158825,33.0743667 231.263987,33.0799766 C231.357465,33.0855865 231.46847,33.0911964 231.59116,33.0968063 C231.713849,33.1024162 231.859908,33.1024162 232.029337,33.1024162 C232.338982,33.1024162 232.6311,33.0799766 232.905691,33.0463172 C233.180282,33.0070479 233.425661,32.9397291 233.630143,32.8443608 C233.840468,32.7489925 234.004054,32.6143549 234.132586,32.4404481 C234.255276,32.2665412 234.319542,32.053365 234.319542,31.7896998 C234.319542,31.554084 234.272803,31.3577376 234.179325,31.1950505 C234.085847,31.0323634 233.951473,30.9033357 233.776202,30.8079674 C233.600931,30.7125992 233.390606,30.6452804 233.145227,30.6004012 C232.899848,30.555522 232.6311,30.5386923 232.327297,30.5386923 L230.983554,30.5386923 L230.983554,30.5386923 Z" id="Shape" fill="#CCCCCC"></path>
            <path d="M236.487057,31.2006604 C236.487057,30.723819 236.557166,30.3086864 236.703225,29.9552628 C236.849284,29.6018392 237.036239,29.3045145 237.269934,29.0745086 C237.503628,28.8388929 237.778219,28.664986 238.087864,28.5471781 C238.397509,28.4293703 238.712997,28.3732713 239.034326,28.3732713 C239.787991,28.3732713 240.360542,28.5976672 240.763665,29.052069 C241.160946,29.500861 241.365428,30.1908786 241.365428,31.110902 C241.365428,31.1501713 241.365428,31.2062703 241.365428,31.2735891 C241.365428,31.3409079 241.359586,31.3970068 241.353743,31.4531058 L237.526998,31.4531058 C237.567894,32.0084858 237.737322,32.4348382 238.029441,32.720943 C238.321559,33.0126578 238.783105,33.1529052 239.408238,33.1529052 C239.758779,33.1529052 240.05674,33.1248557 240.296276,33.0631469 C240.535813,33.0070479 240.716926,32.945339 240.839616,32.8948499 L240.979832,33.7026754 C240.857143,33.7643842 240.646818,33.831703 240.337173,33.8990218 C240.03337,33.9663406 239.688671,34 239.303075,34 C238.818159,34 238.397509,33.9270713 238.041125,33.7868238 C237.684741,33.6465764 237.392623,33.4502299 237.164771,33.2033943 C236.936919,32.9565588 236.767491,32.6592341 236.650643,32.3226402 C236.539639,31.9748264 236.487057,31.6045731 236.487057,31.2006604 Z M240.325488,30.6733299 C240.33133,30.2413676 240.220326,29.8823341 239.986631,29.6074491 C239.752937,29.3269541 239.431607,29.1867066 239.022642,29.1867066 C238.79479,29.1867066 238.590307,29.2315858 238.415036,29.3157343 C238.239765,29.3998828 238.093706,29.5120808 237.971017,29.6523282 C237.848327,29.7925757 237.75485,29.9496529 237.684741,30.1291697 C237.614633,30.3086864 237.573736,30.4938131 237.550367,30.6789398 L240.325488,30.6733299 Z" id="Shape" fill="#CCCCCC"></path>
            <path d="M243.743269,28.5022989 L245.858203,28.5022989 L245.858203,29.3101244 L243.743269,29.3101244 L243.743269,31.7840899 C243.743269,32.053365 243.766638,32.2721511 243.807535,32.4516679 C243.848431,32.6255747 243.912697,32.7658222 244.000333,32.8668004 C244.087968,32.9677786 244.193131,33.0350974 244.321662,33.0799766 C244.450194,33.1192459 244.602096,33.1416854 244.771524,33.1416854 C245.075327,33.1416854 245.314864,33.1080261 245.495977,33.0407073 C245.67709,32.9733885 245.805622,32.9285093 245.87573,32.9004598 L246.068528,33.6970655 C245.969208,33.7475545 245.793937,33.8036535 245.542716,33.8765822 C245.291494,33.9495109 245.005219,33.9831703 244.683889,33.9831703 C244.304135,33.9831703 243.988648,33.9382911 243.743269,33.8429228 C243.49789,33.7475545 243.299249,33.612917 243.147348,33.4221804 C242.995447,33.2370537 242.890284,33.0070479 242.831861,32.7377727 C242.767595,32.4684976 242.738383,32.1487333 242.738383,31.7953097 L242.738383,27.0044559 L243.737426,26.8417688 L243.737426,28.5022989 L243.743269,28.5022989 Z" id="Path" fill="#CCCCCC"></path>
            <path d="M248.066615,28.5022989 L250.18155,28.5022989 L250.18155,29.3101244 L248.066615,29.3101244 L248.066615,31.7840899 C248.066615,32.053365 248.089985,32.2721511 248.130881,32.4516679 C248.171778,32.6255747 248.236044,32.7658222 248.323679,32.8668004 C248.411315,32.9677786 248.516477,33.0350974 248.645009,33.0799766 C248.773541,33.1192459 248.925442,33.1416854 249.094871,33.1416854 C249.398674,33.1416854 249.63821,33.1080261 249.819323,33.0407073 C250.000437,32.9733885 250.128969,32.9285093 250.199077,32.9004598 L250.391875,33.6970655 C250.292555,33.7475545 250.117284,33.8036535 249.866062,33.8765822 C249.614841,33.9495109 249.328565,33.9831703 249.007235,33.9831703 C248.627482,33.9831703 248.311995,33.9382911 248.066615,33.8429228 C247.821236,33.7475545 247.622596,33.612917 247.470695,33.4221804 C247.318793,33.2314438 247.213631,33.0070479 247.155207,32.7377727 C247.090941,32.4684976 247.061729,32.1487333 247.061729,31.7953097 L247.061729,27.0044559 L248.060773,26.8417688 L248.060773,28.5022989 L248.066615,28.5022989 Z" id="Path" fill="#CCCCCC"></path>
            <path d="M251.034534,31.2006604 C251.034534,30.723819 251.104643,30.3086864 251.250702,29.9552628 C251.396761,29.6018392 251.583716,29.3045145 251.817411,29.0745086 C252.051105,28.8388929 252.325696,28.664986 252.635341,28.5471781 C252.944986,28.4293703 253.260474,28.3732713 253.581803,28.3732713 C254.335468,28.3732713 254.908019,28.5976672 255.311142,29.052069 C255.708423,29.500861 255.912905,30.1908786 255.912905,31.110902 C255.912905,31.1501713 255.912905,31.2062703 255.912905,31.2735891 C255.912905,31.3409079 255.907063,31.3970068 255.90122,31.4531058 L252.074474,31.4531058 C252.115371,32.0084858 252.284799,32.4348382 252.576917,32.720943 C252.869035,33.0126578 253.330582,33.1529052 253.955714,33.1529052 C254.306256,33.1529052 254.604216,33.1248557 254.843753,33.0631469 C255.08329,33.0070479 255.264403,32.945339 255.387093,32.8948499 L255.527309,33.7026754 C255.40462,33.7643842 255.194295,33.831703 254.88465,33.8990218 C254.580847,33.9663406 254.236148,34 253.850552,34 C253.365636,34 252.944986,33.9270713 252.588602,33.7868238 C252.232218,33.6465764 251.9401,33.4502299 251.712248,33.2033943 C251.484396,32.9565588 251.314968,32.6592341 251.19812,32.3226402 C251.087116,31.9748264 251.034534,31.6045731 251.034534,31.2006604 Z M254.867123,30.6733299 C254.872965,30.2413676 254.76196,29.8823341 254.528266,29.6074491 C254.294571,29.3269541 253.973242,29.1867066 253.564276,29.1867066 C253.336424,29.1867066 253.131942,29.2315858 252.956671,29.3157343 C252.7814,29.3998828 252.635341,29.5120808 252.512652,29.6523282 C252.389962,29.7925757 252.296484,29.9496529 252.226376,30.1291697 C252.156268,30.3086864 252.115371,30.4938131 252.092002,30.6789398 L254.867123,30.6733299 Z" id="Shape" fill="#CCCCCC"></path>
            <path d="M259.418321,28.390101 C259.505957,28.390101 259.605277,28.3957109 259.716282,28.4069307 C259.827287,28.4181505 259.938291,28.4293703 260.043454,28.4461999 C260.148616,28.4630296 260.247936,28.4798593 260.341414,28.496689 C260.42905,28.5135187 260.499158,28.5303484 260.540054,28.5415682 L260.370626,29.3774432 C260.288833,29.3493937 260.160301,29.3157343 259.979188,29.276465 C259.792232,29.2371957 259.558538,29.220366 259.272262,29.220366 C259.085307,29.220366 258.904194,29.2428056 258.717238,29.276465 C258.536125,29.3157343 258.413435,29.3381739 258.355012,29.3550036 L258.355012,33.8653624 L257.355968,33.8653624 L257.355968,28.7266949 C257.589663,28.6425464 257.887623,28.5640078 258.238165,28.496689 C258.582864,28.4237604 258.980144,28.390101 259.418321,28.390101 Z" id="Path" fill="#CCCCCC"></path>
            <polygon id="Path" fill="#CCCCCC" points="268.532403 33.0070479 268.532403 33.8709723 264.051313 33.8709723 264.051313 26.718351 265.091253 26.718351 265.091253 33.0070479"></polygon>
            <path d="M270.057259,27.5317864 C269.876146,27.5317864 269.724245,27.4756874 269.601555,27.3634894 C269.478866,27.2512915 269.4146,27.0998242 269.4146,26.9034777 C269.4146,26.7071312 269.478866,26.555664 269.601555,26.443466 C269.730087,26.331268 269.881988,26.275169 270.057259,26.275169 C270.238372,26.275169 270.390274,26.331268 270.512963,26.443466 C270.641495,26.555664 270.699919,26.7071312 270.699919,26.9034777 C270.699919,27.0942143 270.635653,27.2512915 270.512963,27.3634894 C270.390274,27.4756874 270.238372,27.5317864 270.057259,27.5317864 Z M270.559702,33.8709723 L269.560659,33.8709723 L269.560659,28.5022989 L270.559702,28.5022989 L270.559702,33.8709723 Z" id="Shape" fill="#CCCCCC"></path>
            <path d="M274.468241,25.8600365 C274.760359,25.8600365 275.011581,25.8824761 275.227748,25.9217454 C275.438073,25.9610147 275.584132,26.000284 275.671767,26.0339434 L275.484812,26.8585985 C275.397177,26.8193292 275.280329,26.7800599 275.122586,26.7407906 C274.964842,26.7015213 274.772044,26.6846916 274.544192,26.6846916 C274.076803,26.6846916 273.755473,26.8081094 273.568518,27.0493351 C273.381562,27.2961706 273.288084,27.6215448 273.288084,28.0366773 L273.288084,28.5022989 L275.438073,28.5022989 L275.438073,29.3101244 L273.288084,29.3101244 L273.288084,33.8709723 L272.289041,33.8709723 L272.289041,28.0198476 C272.289041,27.32983 272.464312,26.8024995 272.814853,26.4266363 C273.159553,26.0507731 273.714577,25.8600365 274.468241,25.8600365 Z" id="Path" fill="#CCCCCC"></path>
            <path d="M276.121629,31.2006604 C276.121629,30.723819 276.191738,30.3086864 276.337797,29.9552628 C276.483856,29.6018392 276.670811,29.3045145 276.904505,29.0745086 C277.1382,28.8388929 277.412791,28.664986 277.722436,28.5471781 C278.032081,28.4293703 278.347568,28.3732713 278.668898,28.3732713 C279.422563,28.3732713 279.995114,28.5976672 280.398237,29.052069 C280.795517,29.500861 281,30.1908786 281,31.110902 C281,31.1501713 281,31.2062703 281,31.2735891 C281,31.3409079 280.994158,31.3970068 280.988315,31.4531058 L277.161569,31.4531058 C277.202466,32.0084858 277.371894,32.4348382 277.664012,32.720943 C277.95613,33.0126578 278.417677,33.1529052 279.042809,33.1529052 C279.393351,33.1529052 279.691311,33.1248557 279.930848,33.0631469 C280.170385,33.0070479 280.351498,32.945339 280.474188,32.8948499 L280.614404,33.7026754 C280.491715,33.7643842 280.28139,33.831703 279.971745,33.8990218 C279.667942,33.9663406 279.323243,34 278.937647,34 C278.452731,34 278.032081,33.9270713 277.675697,33.7868238 C277.319313,33.6465764 277.027195,33.4502299 276.799343,33.2033943 C276.565649,32.9565588 276.402062,32.6592341 276.285215,32.3226402 C276.17421,31.9748264 276.121629,31.6045731 276.121629,31.2006604 Z M279.96006,30.6733299 C279.965902,30.2413676 279.854897,29.8823341 279.621203,29.6074491 C279.387509,29.3269541 279.066179,29.1867066 278.657214,29.1867066 C278.429361,29.1867066 278.224879,29.2315858 278.049608,29.3157343 C277.874337,29.3998828 277.728278,29.5120808 277.605589,29.6523282 C277.482899,29.7925757 277.389421,29.9496529 277.319313,30.1291697 C277.249205,30.3086864 277.208308,30.4938131 277.184939,30.6789398 L279.96006,30.6789398 L279.96006,30.6733299 Z" id="Shape" fill="#CCCCCC"></path>
        </g>
    </g>
</svg>